# xmcd CD database file
#
# Track frame offsets:
#	150
#	15442
#	34876
#	52432
#	65334
#	77143
#	102682
#	124030
#	192048
#	206447
#	227411
#
# Disc length: 3333 seconds
#
# Revision: 0
# Processed by: cddbd v1.5.1PL0 Copyright (c) Steve Scherf et al.
# Submitted via: CDex 1.51
#
DISCID=920d030b
DTITLE=Glim - Music For Fieldrecordings
DYEAR=1900
DGENRE=Ambient
TTITLE0=naab
TTITLE1=drive in
TTITLE2=nachtflug
TTITLE3=pin-up
TTITLE4=naab 3
TTITLE5=gone
TTITLE6=puszta
TTITLE7=somewhere
TTITLE8=kajal
TTITLE9=s/w
TTITLE10=(hidden track)
EXTD=
EXTT0=
EXTT1=
EXTT2=
EXTT3=
EXTT4=
EXTT5=
EXTT6=
EXTT7=
EXTT8=
EXTT9=
EXTT10=
PLAYORDER=
